<?xml version="1.0" encoding="utf-8"?>
<!-- Generator: Adobe Illustrator 22.1.0, SVG Export Plug-In . SVG Version: 6.00 Build 0)  -->
<svg version="1.1" id="Layer_1" xmlns="http://www.w3.org/2000/svg" xmlns:xlink="http://www.w3.org/1999/xlink" x="0px" y="0px"
	 viewBox="0 0 518.5 325" style="enable-background:new 0 0 518.5 325;" xml:space="preserve">
<style type="text/css">
	.st0{fill:url(#SVGID_1_);stroke:#FDEC4D;}
	.st1{fill:url(#SVGID_2_);stroke:#FDEC4D;}
	.st2{fill:url(#SVGID_3_);stroke:#FDEC4D;}
	.st3{fill:url(#SVGID_4_);stroke:#FDEC4D;}
	.st4{fill:url(#SVGID_5_);stroke:#FDEC4D;}
	.st5{fill:url(#SVGID_6_);stroke:#FDEC4D;}
	.st6{fill:url(#SVGID_7_);stroke:#FDEC4D;}
	.st7{fill:#FEED4D;}
	.st8{font-family:'Brother-1816-Thin';}
	.st9{font-size:54.8742px;}
	.st10{fill:#FFFFFF;}
	.st11{font-family:'Brother-1816-Bold';}
	.st12{font-size:72.897px;}
</style>
<g>
	<path d="M503.9,86.3l-1.9-0.5l-3.7-0.9l-3.2-0.4v-0.1c-1,0.1-2,0.2-3,0.2c-11.4,0-20.7-7.4-20.7-16.5c0-0.3,0-0.9,0-0.9
		c-0.1-0.1-0.2-0.2-0.3-0.3l-0.9-4.8l-1.8-5.3l-0.8-7v-9l-1.9-2.5l-1.2,10l-0.8,7.5l-3.6-0.5l-0.8-5.6l-4.1-3.6v-4.6l-3.2-2.8
		l-1.2-19.5l-1.9-1.7l-4-2.2l-2.6-1.9l-1.3-0.1c-1.8-0.1-3.4-0.3-5-0.5L425,11.6l-4-2.7l-0.2-0.1c-1.1,0.1-2.2,0.1-3.3,0.1
		c-1.9,0-3.7-0.1-5.5-0.3l-2.5,3.2l-0.8,11.6l-2.5,3.6l-10,27.1l-3.8,1.5l-1.6,4.1l-1.9-0.3c0,0-3.6-2.2-4.2-2.8s-3.6-2-3.6-2
		s0,0-0.6-0.2c-0.6-0.2-2.4-0.4-3.2-0.7c-0.8-0.4-4.3-0.4-4.3-0.4l-1.6-0.4c0,0-1-0.4-2.6-0.7c-1.6-0.4,0,0-0.8,0
		c-0.8,0-2.6,0-2.6,0s0,0-1.4,0.4c-1.4,0.4,0,0-1,0.5c-1,0.5-2.4,1.1-3.5,1.5c-1.1,0.4-2.3,3.8-2.3,3.8l-1.4,5.6h-2
		c0,0-1.4-0.9-2.4-0.9c-1,0-1.2-0.2-2.8-0.5c-1.6-0.4,0,0-1.2,0c-1.2,0-1.2,0-2.4,0c-1.2,0-1,0.4-1.6,1.4c-0.6,1-1.2-0.3-2.2,0
		c-1,0.3-1.6,0.4-1.9,1c-0.3,0.5-2.1,0.2-3.9,0.9c-1.8,0.7,0,0-2.4,0.5c-2.4,0.5,0,0-0.8-0.7c-0.8-0.7-3.4,0.4-4.8,0
		c-1.4-0.4,0,0-0.6,0c-0.6,0-2.4-1.5-3.8-1.8c-1.4-0.4-4.6-2.5-4.6-2.5l-0.6-1.3c0,0-0.7-0.9-0.8-3.5c-0.1-2.6,0.8-2.8,1.9-6.3
		c1.1-3.4,1.4-1.8,1.4-1.8v-1.4c0,0-0.3-3.2,0-3.9c0.3-0.7-1.4-5.1-1.4-5.1s-0.7-1.1-1.4-2c-0.7-0.9-0.7-1.5-2.5-2.5s0-2.9,0-2.9
		l-2.2-2.5l-3.3-1.6c0,0-1-3.2-1.1-3.9c-0.1-0.7-1.4-6.3-1.4-6.3l-2.5-5.9L303,7.7c-1.9,0.9-4,1.5-6.3,1.5c-0.8,0-1.5-0.1-2.2-0.2
		l-2.5,3.5l-10.7,1.6l-1.9,3.3l-3.6,3.3l-2.2,3.1v2.7v4.1v6.1l-1.6,4v2.8c0,0,0.1,1.2,0,2c-0.1,0.8-2.5,3.1-2.5,3.1l-1.1,0.2
		l-1.4-4.7v-3.4v-3c0,0-0.5-2.2-0.1-3.3c0.4-1.1-0.4-1.3-0.1-2c0.3-0.7,0-6.8,0-6.8v-4.3l-2.5-2.5l-1.5,5.1l-0.8,2.9l-0.9,2.1
		l-2.5,3.9c0,0,0,0-0.1,0c0,0,0,0,0,0l-1.9,4.8l-0.4,4.3c0,0,1,3.9,0,6.3c-1,2.3,0,2.5,0,2.5l-0.1,5.1c0,0,0.3,1.2,0,5.3
		c-0.3,4.1-0.1,2.1-0.1,2.1s0.3,0.8,0.1,1.7l-0.1,0c-0.1-0.1-0.2-0.3-0.4-0.4l-1-5.3l-1.9-5.8l-0.9-7.7v-9.9l-2.1-2.7l-1.3,10.9
		l-0.9,8.2l-3.9-0.5l-0.9-6.1l-4.5-3.9v-5l-3.4-3.1l-1.3-21.3l-2.1-1.9L227,8l-2.8-2l-1.5-0.2c-0.5,0.1-1,0.1-1.5,0.1
		c-1.5,0-3-0.3-4.3-0.8l-11.4-1.2l-1.2-0.8c-0.7,0.1-1.5,0.1-2.3,0.1c-4.1,0-7.8-0.9-10.9-2.3l-2.6,3.3l-0.9,12.7l-2.7,3.9
		l-10.9,29.6l-4.2,1.6l-1.5,3.9c-2.7-0.7-6.8-1.5-8-2c-1.6-0.7-1.4-0.8-3-1.5c-1.6-0.7-2-1.8-2.8-2c-0.8-0.2-1.2-0.9-2.2-1.3
		c-1-0.4-2.2-1.5-2.8-1.8c-0.6-0.4-5.4-0.7-6.4-0.7c-1,0-1.2,0-2,0.2c-0.8,0.2-6.4,0.5-7.2,0.7c-0.8,0.2-1.2,0.4-4.4,2
		c-3.2,1.6-1.6,0.5-2.8,1.1c-1.2,0.5-2.2,0.9-3.8,1.6c-1.6,0.7-1.6,0.5-2.2,0.7c-0.6,0.2-1.2,0.4-2.4,0.9c-1.2,0.5-8.6-2.4-9.4-3.3
		c-0.8-0.9-1,0-1,0s-5.6-2.4-6.2-2.5c-0.6-0.2-2.6-1.3-2.6-1.3l-8.1-4c0,0-0.3-3.5,0-4.3c0.3-0.7-1.5-5.6-1.5-5.6s-0.8-1.2-1.5-2.1
		c-0.7-1-0.7-1.6-2.7-2.8c-1.9-1.2,0-3.2,0-3.2l-2.4-2.8l-3.6-1.7c0,0-1-3.5-1.2-4.3c-0.1-0.7-1.5-6.8-1.5-6.8l-2.7-6.4L72.2,0
		c-6.4-0.4-10.7,2.7-10.7,2.7L59.9,5L48.2,6.7l-2.1,3.6l-3.9,3.6l-2.4,3.4v3v4.5v6.6L38,35.8v3.1c0,0,0.1,1.3,0,2.1
		c-0.2,0.9-2.7,3.4-2.7,3.4l-1.2,0.2l-1.5-5.1v-3.7v-3.3c0,0-0.6-2.5-0.1-3.6c0.4-1.2-0.4-1.4-0.2-2.1c0.3-0.7,0-7.5,0-7.5v-4.7
		L31.8,14l-2.4,2.9l-1,1.4l-1.5,1.6h-1.6L24.6,22l-1.9,3.8c0,0,0,0-0.1,0c0,0,0,0,0,0.1c0.2,0.6,0.4,1,0.8,1.2l-2.1,5.2L20.9,37
		c0,0,1,4.3,0,6.8c-1,2.6,0,2.8,0,2.8l-0.2,5.6c0,0,0.3,1.3,0,5.8c-0.3,4.5-0.1,2.3-0.1,2.3s0.4,1.1,0,2.3c-0.4,1.3,0,2.3,0,2.3v2.6
		c0,0-1.3,3.4-1.8,5.6c-0.1,0.6-0.3,1.2-0.5,2c0,0.4,0.1,0.9,0.1,1.3c0,9.3-8.2,16.8-18.3,17v174.5v17.6v14.2V325h518.5v-25.3v-14.2
		v-17.6V86.3H503.9z"/>
	<g>
		<linearGradient id="SVGID_1_" gradientUnits="userSpaceOnUse" x1="47.9587" y1="191.6292" x2="47.9587" y2="117.8359">
			<stop  offset="0" style="stop-color:#EB2227"/>
			<stop  offset="6.585509e-03" style="stop-color:#EB2D28"/>
			<stop  offset="6.447059e-02" style="stop-color:#ED672A"/>
			<stop  offset="0.1241" style="stop-color:#EF8B2D"/>
			<stop  offset="0.1841" style="stop-color:#F1A82F"/>
			<stop  offset="0.2446" style="stop-color:#F3C030"/>
			<stop  offset="0.3059" style="stop-color:#F5D231"/>
			<stop  offset="0.3681" style="stop-color:#F6DF31"/>
			<stop  offset="0.432" style="stop-color:#F7E731"/>
			<stop  offset="0.5" style="stop-color:#F8EB30"/>
			<stop  offset="1" style="stop-color:#EB2227"/>
		</linearGradient>
		<path class="st0" d="M15.7,191.6v-73.8h23.6c25.1,0,41,15.3,41,36.9s-15.8,36.9-40.8,36.9H15.7z M31.5,131.1v47.4h7.8
			c15.8,0,25.1-10.2,25.1-23.7c0-13.3-9.3-23.7-25.3-23.7H31.5z"/>
		<linearGradient id="SVGID_2_" gradientUnits="userSpaceOnUse" x1="120.205" y1="191.6292" x2="120.205" y2="117.8359">
			<stop  offset="0" style="stop-color:#EB2227"/>
			<stop  offset="6.585509e-03" style="stop-color:#EB2D28"/>
			<stop  offset="6.447059e-02" style="stop-color:#ED672A"/>
			<stop  offset="0.1241" style="stop-color:#EF8B2D"/>
			<stop  offset="0.1841" style="stop-color:#F1A82F"/>
			<stop  offset="0.2446" style="stop-color:#F3C030"/>
			<stop  offset="0.3059" style="stop-color:#F5D231"/>
			<stop  offset="0.3681" style="stop-color:#F6DF31"/>
			<stop  offset="0.432" style="stop-color:#F7E731"/>
			<stop  offset="0.5" style="stop-color:#F8EB30"/>
			<stop  offset="1" style="stop-color:#EB2227"/>
		</linearGradient>
		<path class="st1" d="M95.7,191.6v-73.8h47.5v13.2h-31.7v16.8h26.9v12.7h-26.9v17.8h33.2v13.2H95.7z"/>
		<linearGradient id="SVGID_3_" gradientUnits="userSpaceOnUse" x1="181.6387" y1="191.6292" x2="181.6387" y2="117.8359">
			<stop  offset="0" style="stop-color:#EB2227"/>
			<stop  offset="6.585509e-03" style="stop-color:#EB2D28"/>
			<stop  offset="6.447059e-02" style="stop-color:#ED672A"/>
			<stop  offset="0.1241" style="stop-color:#EF8B2D"/>
			<stop  offset="0.1841" style="stop-color:#F1A82F"/>
			<stop  offset="0.2446" style="stop-color:#F3C030"/>
			<stop  offset="0.3059" style="stop-color:#F5D231"/>
			<stop  offset="0.3681" style="stop-color:#F6DF31"/>
			<stop  offset="0.432" style="stop-color:#F7E731"/>
			<stop  offset="0.5" style="stop-color:#F8EB30"/>
			<stop  offset="1" style="stop-color:#EB2227"/>
		</linearGradient>
		<path class="st2" d="M189.5,131.1v60.6h-15.8v-60.6h-20.6v-13.2h57.1v13.2H189.5z"/>
		<linearGradient id="SVGID_4_" gradientUnits="userSpaceOnUse" x1="257.216" y1="193.0645" x2="257.216" y2="116.4029">
			<stop  offset="0" style="stop-color:#EB2227"/>
			<stop  offset="6.585509e-03" style="stop-color:#EB2D28"/>
			<stop  offset="6.447059e-02" style="stop-color:#ED672A"/>
			<stop  offset="0.1241" style="stop-color:#EF8B2D"/>
			<stop  offset="0.1841" style="stop-color:#F1A82F"/>
			<stop  offset="0.2446" style="stop-color:#F3C030"/>
			<stop  offset="0.3059" style="stop-color:#F5D231"/>
			<stop  offset="0.3681" style="stop-color:#F6DF31"/>
			<stop  offset="0.432" style="stop-color:#F7E731"/>
			<stop  offset="0.5" style="stop-color:#F8EB30"/>
			<stop  offset="1" style="stop-color:#EB2227"/>
		</linearGradient>
		<path class="st3" d="M257.2,116.4c22.2,0,38.6,17,38.6,38.3c0,21.5-16.3,38.3-38.6,38.3c-22.3,0-38.6-16.8-38.6-38.3
			C218.6,133.5,234.9,116.4,257.2,116.4z M257.2,178.6c13.3,0,22.8-10.7,22.8-23.9c0-13.1-9.4-23.9-22.8-23.9
			c-13.3,0-22.8,10.8-22.8,23.9C234.5,168,243.9,178.6,257.2,178.6z"/>
		<linearGradient id="SVGID_5_" gradientUnits="userSpaceOnUse" x1="341.1435" y1="193.0645" x2="341.1435" y2="117.8359">
			<stop  offset="0" style="stop-color:#EB2227"/>
			<stop  offset="6.585509e-03" style="stop-color:#EB2D28"/>
			<stop  offset="6.447059e-02" style="stop-color:#ED672A"/>
			<stop  offset="0.1241" style="stop-color:#EF8B2D"/>
			<stop  offset="0.1841" style="stop-color:#F1A82F"/>
			<stop  offset="0.2446" style="stop-color:#F3C030"/>
			<stop  offset="0.3059" style="stop-color:#F5D231"/>
			<stop  offset="0.3681" style="stop-color:#F6DF31"/>
			<stop  offset="0.432" style="stop-color:#F7E731"/>
			<stop  offset="0.5" style="stop-color:#F8EB30"/>
			<stop  offset="1" style="stop-color:#EB2227"/>
		</linearGradient>
		<path class="st4" d="M372,164.8c0,17.2-11.4,28.3-30.8,28.3c-19.4,0-30.8-11.1-30.8-28.3v-46.9h15.8v45.4
			c0,9.6,5.4,15.4,15.1,15.4c9.7,0,15.1-5.7,15.1-15.4v-45.4H372V164.8z"/>
		<linearGradient id="SVGID_6_" gradientUnits="userSpaceOnUse" x1="418.9755" y1="191.6292" x2="418.9755" y2="117.8359">
			<stop  offset="0" style="stop-color:#EB2227"/>
			<stop  offset="6.585509e-03" style="stop-color:#EB2D28"/>
			<stop  offset="6.447059e-02" style="stop-color:#ED672A"/>
			<stop  offset="0.1241" style="stop-color:#EF8B2D"/>
			<stop  offset="0.1841" style="stop-color:#F1A82F"/>
			<stop  offset="0.2446" style="stop-color:#F3C030"/>
			<stop  offset="0.3059" style="stop-color:#F5D231"/>
			<stop  offset="0.3681" style="stop-color:#F6DF31"/>
			<stop  offset="0.432" style="stop-color:#F7E731"/>
			<stop  offset="0.5" style="stop-color:#F8EB30"/>
			<stop  offset="1" style="stop-color:#EB2227"/>
		</linearGradient>
		<path class="st5" d="M417,117.8c17.1,0,28.5,8.5,28.5,24.3c0,10.8-6,17.8-14,21l15.5,28.5h-16.7l-13-25.8h-10.7v25.8H391v-73.8
			H417z M406.5,131.1v22h11.3c7,0,11.8-3.5,11.8-11c0-7.4-5-11.1-12.2-11.1H406.5z"/>
		<linearGradient id="SVGID_7_" gradientUnits="userSpaceOnUse" x1="482.8695" y1="193.0645" x2="482.8695" y2="116.4029">
			<stop  offset="0" style="stop-color:#EB2227"/>
			<stop  offset="6.585509e-03" style="stop-color:#EB2D28"/>
			<stop  offset="6.447059e-02" style="stop-color:#ED672A"/>
			<stop  offset="0.1241" style="stop-color:#EF8B2D"/>
			<stop  offset="0.1841" style="stop-color:#F1A82F"/>
			<stop  offset="0.2446" style="stop-color:#F3C030"/>
			<stop  offset="0.3059" style="stop-color:#F5D231"/>
			<stop  offset="0.3681" style="stop-color:#F6DF31"/>
			<stop  offset="0.432" style="stop-color:#F7E731"/>
			<stop  offset="0.5" style="stop-color:#F8EB30"/>
			<stop  offset="1" style="stop-color:#EB2227"/>
		</linearGradient>
		<path class="st6" d="M458.7,188.9v-15.2c5.1,2.7,11.9,4.9,18.6,5.3c2.4,0.1,4.6,0,6.6-0.4c5.6-0.8,8.9-3,8.9-6.6
			c0-4.9-4.4-7.5-14.6-11.2c-12.9-4.7-20.5-10.1-20.5-23c0-13.1,10.9-21.5,26.7-21.5c7.4,0,14.7,1.6,19.3,3.7v14.6
			c-4.3-2.6-11.3-4.5-18-4.5c-7.6,0-12.5,3-12.5,7.7c0,4.3,4,7.3,14,11.1c12.9,5,20.9,10.5,20.9,22.9c0,13.3-10,21.3-27.5,21.3
			C472.2,193.1,464,191.2,458.7,188.9z"/>
	</g>
	<text transform="matrix(1 0 0 1 20.9995 309.7959)" class="st7 st8 st9">IN THE SOUTH RIM</text>
	<text transform="matrix(1 0 0 1 21.6914 260.0469)" class="st10 st11 st12">SAFARI CAMP</text>
</g>
</svg>
